<?xml version="1.0" encoding="UTF-8"?>
<svg id="katman_2" xmlns="http://www.w3.org/2000/svg" viewBox="0 0 367.43 114.92">
  <defs>
    <style>
      .cls-1 {
        fill: #fff;
      }

      .cls-2 {
        fill: #494445;
      }
    </style>
  </defs>
  <g id="Layer_1">
    <g>
      <path class="cls-2" d="M9.12,67.27h2.96l7.99,18.29h-3.37l-1.84-4.38H6.27l-1.87,4.38H1.13l7.99-18.29ZM13.69,78.34l-3.14-7.26-3.11,7.26h6.25Z"/>
      <polygon class="cls-2" points="21.88 67.39 24.84 67.39 34.57 79.95 34.57 67.39 37.71 67.39 37.71 85.56 35.04 85.56 25.02 72.64 25.02 85.56 21.88 85.56 21.88 67.39"/>
      <polygon class="cls-2" points="45.54 70.35 39.78 70.35 39.78 67.39 54.52 67.39 54.52 70.35 48.76 70.35 48.76 85.56 45.54 85.56 45.54 70.35"/>
      <path class="cls-2" d="M60.69,67.27h2.96l7.99,18.29h-3.37l-1.84-4.38h-8.59l-1.87,4.38h-3.27l7.99-18.29ZM65.26,78.34l-3.14-7.26-3.11,7.26h6.25Z"/>
      <polygon class="cls-2" points="73.45 67.39 76.64 67.39 76.64 82.65 86.19 82.65 86.19 85.56 73.45 85.56 73.45 67.39"/>
      <polygon class="cls-2" points="90.18 78.39 82.97 67.39 86.76 67.39 91.82 75.41 96.96 67.39 100.61 67.39 93.4 78.32 93.4 85.56 90.18 85.56 90.18 78.39"/>
      <path class="cls-2" d="M105.7,67.27h2.96l7.99,18.29h-3.37l-1.84-4.38h-8.59l-1.87,4.38h-3.27l7.99-18.29ZM110.26,78.34l-3.14-7.26-3.12,7.26h6.25Z"/>
      <path class="cls-2" d="M124.94,67.39h8.14c2.08,0,3.71.57,4.75,1.61.81.8,1.22,1.79,1.22,3.01v.05c0,2.18-1.24,3.35-2.59,4.05,2.13.73,3.61,1.95,3.61,4.41v.05c0,3.24-2.67,4.98-6.72,4.98h-8.41v-18.16ZM135.87,72.53c0-1.43-1.14-2.31-3.19-2.31h-4.59v4.83h4.36c2.05,0,3.43-.8,3.43-2.46v-.05ZM133.14,77.75h-5.06v4.98h5.29c2.18,0,3.5-.85,3.5-2.49v-.05c0-1.53-1.22-2.44-3.74-2.44"/>
      <path class="cls-2" d="M142.5,62.99h3.32v2.9h-3.32v-2.9ZM142.56,67.39h3.19v18.16h-3.19v-18.16Z"/>
      <polygon class="cls-2" points="149.3 67.39 152.49 67.39 152.49 82.65 162.04 82.65 162.04 85.56 149.3 85.56 149.3 67.39"/>
      <path class="cls-2" d="M164.19,62.99h3.32v2.9h-3.32v-2.9ZM164.24,67.39h3.19v18.16h-3.19v-18.16Z"/>
      <polygon class="cls-2" points="170.99 67.39 174.38 67.39 179.91 75.98 185.44 67.39 188.84 67.39 188.84 85.56 185.64 85.56 185.64 72.53 179.91 81.09 179.81 81.09 174.12 72.58 174.12 85.56 170.99 85.56 170.99 67.39"/>
      <path class="cls-2" d="M198.4,77.85v-10.46h3.19v10.33c0,3.37,1.74,5.16,4.59,5.16s4.57-1.68,4.57-5.03v-10.46h3.19v10.3c0,5.42-3.06,8.15-7.81,8.15s-7.73-2.72-7.73-7.99M201.88,63.01h3.24v2.91h-3.24v-2.91ZM207.23,63.01h3.22v2.91h-3.22v-2.91Z"/>
      <polygon class="cls-2" points="217.03 67.39 219.99 67.39 229.72 79.95 229.72 67.39 232.86 67.39 232.86 85.56 230.18 85.56 220.17 72.64 220.17 85.56 217.03 85.56 217.03 67.39"/>
      <path class="cls-2" d="M236.36,62.99h3.32v2.9h-3.32v-2.9ZM236.41,67.39h3.19v18.16h-3.19v-18.16Z"/>
      <polygon class="cls-2" points="241.59 67.39 245.12 67.39 250.6 81.35 256.04 67.39 259.49 67.39 251.97 85.68 249.14 85.68 241.59 67.39"/>
      <polygon class="cls-2" points="261.31 67.39 274.77 67.39 274.77 70.25 264.5 70.25 264.5 74.97 273.61 74.97 273.61 77.82 264.5 77.82 264.5 82.7 274.9 82.7 274.9 85.56 261.31 85.56 261.31 67.39"/>
      <path class="cls-2" d="M277.39,67.39h8.09c2.28,0,4.07.68,5.24,1.82.96.99,1.51,2.33,1.51,3.92v.05c0,2.98-1.79,4.77-4.31,5.5l4.9,6.87h-3.79l-4.46-6.33h-3.99v6.33h-3.19v-18.16ZM285.25,76.4c2.28,0,3.74-1.19,3.74-3.04v-.05c0-1.95-1.4-3.01-3.76-3.01h-4.64v6.1h4.67Z"/>
      <path class="cls-2" d="M293.63,82.91l1.92-2.28c1.74,1.5,3.5,2.36,5.73,2.36,1.97,0,3.22-.94,3.22-2.28v-.05c0-1.29-.73-2-4.1-2.77-3.87-.94-6.04-2.08-6.04-5.42v-.05c0-3.11,2.59-5.27,6.2-5.27,2.65,0,4.75.8,6.59,2.28l-1.71,2.41c-1.63-1.22-3.27-1.87-4.93-1.87-1.87,0-2.96.96-2.96,2.15v.05c0,1.4.83,2.02,4.33,2.85,3.84.93,5.81,2.31,5.81,5.32v.05c0,3.4-2.67,5.42-6.49,5.42-2.78,0-5.4-.96-7.58-2.91"/>
      <path class="cls-2" d="M310.28,62.99h3.32v2.9h-3.32v-2.9ZM310.34,67.39h3.19v18.16h-3.19v-18.16Z"/>
      <polygon class="cls-2" points="321.54 70.35 315.78 70.35 315.78 67.39 330.52 67.39 330.52 70.35 324.76 70.35 324.76 85.56 321.54 85.56 321.54 70.35"/>
      <polygon class="cls-2" points="332.59 67.39 346.06 67.39 346.06 70.25 335.78 70.25 335.78 74.97 344.89 74.97 344.89 77.82 335.78 77.82 335.78 82.7 346.19 82.7 346.19 85.56 332.59 85.56 332.59 67.39"/>
      <path class="cls-2" d="M347.46,82.91l1.92-2.28c1.74,1.5,3.5,2.36,5.73,2.36,1.97,0,3.22-.94,3.22-2.28v-.05c0-1.29-.73-2-4.1-2.77-3.86-.94-6.04-2.08-6.04-5.42v-.05c0-3.11,2.6-5.27,6.2-5.27,2.65,0,4.75.8,6.59,2.28l-1.71,2.41c-1.63-1.22-3.27-1.87-4.93-1.87-1.87,0-2.96.96-2.96,2.15v.05c0,1.4.83,2.02,4.33,2.85,3.84.93,5.81,2.31,5.81,5.32v.05c0,3.4-2.67,5.42-6.49,5.42-2.78,0-5.4-.96-7.58-2.91"/>
      <path class="cls-2" d="M364.11,62.99h3.32v2.9h-3.32v-2.9ZM364.16,67.39h3.19v18.16h-3.19v-18.16Z"/>
      <path class="cls-2" d="M1.88,111.96l.6-.65c1.92,1.81,4.05,2.75,6.69,2.75,3.14,0,5.19-1.71,5.19-3.99v-.05c0-2.13-1.22-3.27-5.6-4.18-4.44-.88-6.17-2.28-6.17-4.9v-.05c0-2.59,2.46-4.69,5.89-4.69,2.49,0,4.46.78,6.17,2.13l-.54.7c-1.66-1.32-3.55-2.02-5.68-2.02-2.98,0-4.95,1.79-4.95,3.81v.05c0,2.1,1.22,3.27,5.63,4.18,4.51.91,6.15,2.36,6.15,4.9v.05c0,2.8-2.41,4.88-6.12,4.88-2.83,0-5.19-1.01-7.24-2.91"/>
      <path class="cls-2" d="M21,106.77v-10.32h.88v10.27c0,4.83,2.59,7.37,6.54,7.37s6.46-2.44,6.46-7.32v-10.32h.88v10.25c0,5.42-2.98,8.2-7.37,8.2s-7.39-2.75-7.39-8.12M25.72,93.02h1.35v1.58h-1.35v-1.58ZM29.72,93.02h1.35v1.58h-1.35v-1.58Z"/>
      <path class="cls-2" d="M42.48,96.45h7.5c2.31,0,4.07.65,5.19,1.74.83.86,1.32,2.02,1.32,3.37v.05c0,3.06-2.36,4.85-5.71,5.14l6.04,7.86h-1.12l-5.91-7.76h-6.43v7.76h-.88v-18.16ZM49.74,106.05c3.74,0,5.86-1.82,5.86-4.38v-.05c0-2.72-2.1-4.36-5.68-4.36h-6.56v8.79h6.38Z"/>
      <polygon class="cls-2" points="62.87 96.45 75.66 96.45 75.66 97.25 63.75 97.25 63.75 105.06 74.52 105.06 74.52 105.87 63.75 105.87 63.75 113.81 75.79 113.81 75.79 114.61 62.87 114.61 62.87 96.45"/>
      <polygon class="cls-2" points="81.73 96.45 82.61 96.45 82.61 108.59 94.78 96.45 96 96.45 88.08 104.26 96.31 114.61 95.17 114.61 87.46 104.86 82.61 109.65 82.61 114.61 81.73 114.61 81.73 96.45"/>
      <polygon class="cls-2" points="101.73 96.45 102.61 96.45 102.61 113.81 113.56 113.81 113.56 114.61 101.73 114.61 101.73 96.45"/>
      <path class="cls-2" d="M118.77,92.89h1.4v1.58h-1.4v-1.58ZM119.03,96.45h.88v18.16h-.88v-18.16Z"/>
      <polygon class="cls-2" points="136.18 96.45 148.96 96.45 148.96 97.25 137.06 97.25 137.06 105.06 147.82 105.06 147.82 105.87 137.06 105.87 137.06 113.81 149.09 113.81 149.09 114.61 136.18 114.61 136.18 96.45"/>
      <path class="cls-2" d="M153.84,105.58v-.05c0-4.88,3.5-9.39,8.98-9.39,2.85,0,4.62.86,6.43,2.36l-.57.67c-1.58-1.32-3.24-2.23-5.92-2.23-4.82,0-8.02,4.1-8.02,8.56v.05c0,4.7,3.04,8.59,8.15,8.59,2.54,0,4.75-1.12,6.2-2.33v-5.58h-6.46v-.86h7.32v6.77c-1.69,1.53-4.15,2.78-7.08,2.78-5.71,0-9.03-4.25-9.03-9.34M159.24,92.27h.73c.26.86,1.06,1.53,2.62,1.53s2.33-.65,2.62-1.53h.73c-.21,1.38-1.4,2.34-3.35,2.34s-3.14-.96-3.35-2.34"/>
      <path class="cls-2" d="M176.44,92.89h1.4v1.58h-1.4v-1.58ZM176.69,96.45h.88v18.16h-.88v-18.16Z"/>
      <polygon class="cls-2" points="189.51 97.25 183.05 97.25 183.05 96.45 196.88 96.45 196.88 97.25 190.39 97.25 190.39 114.61 189.51 114.61 189.51 97.25"/>
      <path class="cls-2" d="M202.06,92.89h1.4v1.58h-1.4v-1.58ZM202.32,96.45h.88v18.16h-.88v-18.16Z"/>
      <polygon class="cls-2" points="210.39 96.45 211.22 96.45 218.9 107.5 226.55 96.45 227.38 96.45 227.38 114.61 226.5 114.61 226.5 97.98 218.9 108.88 218.85 108.88 211.25 97.98 211.25 114.61 210.39 114.61 210.39 96.45"/>
      <polygon class="cls-2" points="243.46 96.45 244.29 96.45 251.97 107.5 259.63 96.45 260.46 96.45 260.46 114.61 259.57 114.61 259.57 97.98 251.97 108.88 251.92 108.88 244.32 97.98 244.32 114.61 243.46 114.61 243.46 96.45"/>
      <polygon class="cls-2" points="267.46 96.45 280.25 96.45 280.25 97.25 268.34 97.25 268.34 105.06 279.11 105.06 279.11 105.87 268.34 105.87 268.34 113.81 280.38 113.81 280.38 114.61 267.46 114.61 267.46 96.45"/>
      <path class="cls-2" d="M286.32,96.45h7.5c2.31,0,4.07.65,5.19,1.74.83.86,1.32,2.02,1.32,3.37v.05c0,3.06-2.36,4.85-5.71,5.14l6.05,7.86h-1.11l-5.92-7.76h-6.43v7.76h-.88v-18.16ZM293.58,106.05c3.74,0,5.86-1.82,5.86-4.38v-.05c0-2.72-2.1-4.36-5.68-4.36h-6.56v8.79h6.38Z"/>
      <polygon class="cls-2" points="306.71 96.45 307.59 96.45 307.59 108.59 319.76 96.45 320.97 96.45 313.06 104.26 321.29 114.61 320.14 114.61 312.44 104.86 307.59 109.65 307.59 114.61 306.71 114.61 306.71 96.45"/>
      <polygon class="cls-2" points="326.71 96.45 339.5 96.45 339.5 97.25 327.59 97.25 327.59 105.06 338.35 105.06 338.35 105.87 327.59 105.87 327.59 113.81 339.62 113.81 339.62 114.61 326.71 114.61 326.71 96.45"/>
      <polygon class="cls-2" points="344.6 114.12 357.47 97.25 345.05 97.25 345.05 96.45 358.72 96.45 358.72 96.94 345.85 113.81 358.66 113.81 358.66 114.61 344.6 114.61 344.6 114.12"/>
      <path class="cls-2" d="M364.79,92.89h1.4v1.58h-1.4v-1.58ZM365.05,96.45h.88v18.16h-.88v-18.16Z"/>
      <path class="cls-2" d="M21.52,1.55h5.96l16.1,36.84h-6.79l-3.71-8.83H15.77l-3.76,8.83h-6.59L21.52,1.55ZM30.72,23.86l-6.32-14.63-6.27,14.63h12.6Z"/>
      <polygon class="cls-2" points="47.24 1.81 53.19 1.81 72.79 27.1 72.79 1.81 79.12 1.81 79.12 38.39 73.73 38.39 53.56 12.37 53.56 38.39 47.24 38.39 47.24 1.81"/>
      <polygon class="cls-2" points="94.9 7.77 83.3 7.77 83.3 1.81 112.98 1.81 112.98 7.77 101.38 7.77 101.38 38.39 94.9 38.39 94.9 7.77"/>
      <path class="cls-2" d="M125.42,1.55h5.96l16.09,36.84h-6.79l-3.71-8.83h-17.3l-3.76,8.83h-6.58L125.42,1.55ZM134.62,23.86l-6.32-14.63-6.27,14.63h12.6Z"/>
      <polygon class="cls-2" points="151.13 1.81 157.56 1.81 157.56 32.54 176.79 32.54 176.79 38.39 151.13 38.39 151.13 1.81"/>
      <polygon class="cls-2" points="184.84 23.97 170.31 1.81 177.94 1.81 188.13 17.96 198.48 1.81 205.85 1.81 191.32 23.81 191.32 38.39 184.84 38.39 184.84 23.97"/>
      <path class="cls-2" d="M216.09,1.55h5.96l16.1,36.84h-6.79l-3.71-8.83h-17.3l-3.76,8.83h-6.58L216.09,1.55ZM225.29,23.86l-6.32-14.63-6.27,14.63h12.59Z"/>
      <path class="cls-2" d="M251.84,32.91l6.53-7.79c3.97,3.03,8.52,4.28,12.8,4.28,2.19,0,3.13-.57,3.13-1.57v-.11c0-1.05-1.15-1.62-5.07-2.4-8.21-1.67-15.42-4.02-15.42-11.76v-.1c0-6.95,5.43-12.33,15.52-12.33,7.06,0,12.28,1.67,16.51,5.02l-5.96,8.26c-3.45-2.51-7.58-3.6-10.97-3.6-1.83,0-2.67.63-2.67,1.51v.11c0,.99.99,1.62,4.86,2.35,9.35,1.73,15.63,4.44,15.63,11.81v.1c0,7.68-6.32,12.39-16.15,12.39-7.42,0-14.11-2.09-18.76-6.17"/>
      <polygon class="cls-2" points="289.57 1.81 320.77 1.81 320.77 11.84 301.59 11.84 301.59 15.55 319.46 15.55 319.46 24.39 301.59 24.39 301.59 28.36 321.03 28.36 321.03 38.39 289.57 38.39 289.57 1.81"/>
      <polygon class="cls-2" points="324.32 1.81 337.08 1.81 344.91 14.67 352.75 1.81 365.5 1.81 365.5 38.39 353.33 38.39 353.33 20.26 344.91 33.27 344.71 33.27 336.29 20.26 336.29 38.39 324.32 38.39 324.32 1.81"/>
      <rect class="cls-2" x="6.93" y="51.02" width="360.37" height="2.42"/>
      <path class="cls-1" d="M7.99,66.14h2.96l7.99,18.29h-3.37l-1.84-4.38H5.14l-1.87,4.38H0l7.99-18.29ZM12.56,77.21l-3.14-7.26-3.11,7.26h6.25Z"/>
      <polygon class="cls-1" points="20.75 66.26 23.71 66.26 33.44 78.82 33.44 66.26 36.58 66.26 36.58 84.43 33.91 84.43 23.89 71.51 23.89 84.43 20.75 84.43 20.75 66.26"/>
      <polygon class="cls-1" points="44.41 69.22 38.65 69.22 38.65 66.26 53.39 66.26 53.39 69.22 47.63 69.22 47.63 84.43 44.41 84.43 44.41 69.22"/>
      <path class="cls-1" d="M59.56,66.14h2.96l7.99,18.29h-3.37l-1.84-4.38h-8.59l-1.87,4.38h-3.27l7.99-18.29ZM64.13,77.21l-3.14-7.26-3.11,7.26h6.25Z"/>
      <polygon class="cls-1" points="72.32 66.26 75.51 66.26 75.51 81.52 85.06 81.52 85.06 84.43 72.32 84.43 72.32 66.26"/>
      <polygon class="cls-1" points="89.05 77.26 81.84 66.26 85.63 66.26 90.69 74.28 95.82 66.26 99.48 66.26 92.27 77.19 92.27 84.43 89.05 84.43 89.05 77.26"/>
      <path class="cls-1" d="M104.57,66.14h2.96l7.99,18.29h-3.37l-1.84-4.38h-8.59l-1.87,4.38h-3.27l7.99-18.29ZM109.13,77.21l-3.14-7.26-3.11,7.26h6.25Z"/>
      <path class="cls-1" d="M123.81,66.26h8.14c2.08,0,3.71.57,4.75,1.61.81.8,1.22,1.79,1.22,3.01v.05c0,2.18-1.24,3.35-2.59,4.05,2.13.73,3.61,1.95,3.61,4.41v.05c0,3.24-2.67,4.98-6.72,4.98h-8.41v-18.16ZM134.74,71.4c0-1.43-1.14-2.31-3.19-2.31h-4.59v4.83h4.36c2.05,0,3.43-.8,3.43-2.46v-.05ZM132.01,76.62h-5.06v4.98h5.29c2.18,0,3.5-.85,3.5-2.49v-.05c0-1.53-1.22-2.44-3.74-2.44"/>
      <path class="cls-1" d="M141.37,61.86h3.32v2.9h-3.32v-2.9ZM141.43,66.26h3.19v18.16h-3.19v-18.16Z"/>
      <polygon class="cls-1" points="148.17 66.26 151.36 66.26 151.36 81.52 160.91 81.52 160.91 84.43 148.17 84.43 148.17 66.26"/>
      <path class="cls-1" d="M163.06,61.86h3.32v2.9h-3.32v-2.9ZM163.11,66.26h3.19v18.16h-3.19v-18.16Z"/>
      <polygon class="cls-1" points="169.86 66.26 173.25 66.26 178.78 74.85 184.31 66.26 187.71 66.26 187.71 84.43 184.51 84.43 184.51 71.4 178.78 79.96 178.68 79.96 172.99 71.45 172.99 84.43 169.86 84.43 169.86 66.26"/>
      <path class="cls-1" d="M197.27,76.72v-10.46h3.19v10.33c0,3.37,1.74,5.16,4.59,5.16s4.57-1.68,4.57-5.03v-10.46h3.19v10.3c0,5.42-3.06,8.15-7.81,8.15s-7.73-2.72-7.73-7.99M200.75,61.88h3.24v2.91h-3.24v-2.91ZM206.1,61.88h3.22v2.91h-3.22v-2.91Z"/>
      <polygon class="cls-1" points="215.9 66.26 218.86 66.26 228.58 78.82 228.58 66.26 231.73 66.26 231.73 84.43 229.05 84.43 219.04 71.51 219.04 84.43 215.9 84.43 215.9 66.26"/>
      <path class="cls-1" d="M235.23,61.86h3.32v2.9h-3.32v-2.9ZM235.28,66.26h3.19v18.16h-3.19v-18.16Z"/>
      <polygon class="cls-1" points="240.46 66.26 243.99 66.26 249.47 80.22 254.91 66.26 258.36 66.26 250.84 84.55 248.01 84.55 240.46 66.26"/>
      <polygon class="cls-1" points="260.18 66.26 273.64 66.26 273.64 69.12 263.37 69.12 263.37 73.84 272.48 73.84 272.48 76.69 263.37 76.69 263.37 81.57 273.77 81.57 273.77 84.43 260.18 84.43 260.18 66.26"/>
      <path class="cls-1" d="M276.26,66.26h8.09c2.28,0,4.07.68,5.24,1.82.96.99,1.51,2.33,1.51,3.92v.05c0,2.98-1.79,4.77-4.31,5.5l4.9,6.87h-3.79l-4.46-6.33h-3.99v6.33h-3.19v-18.16ZM284.12,75.27c2.28,0,3.74-1.19,3.74-3.04v-.05c0-1.95-1.4-3.01-3.76-3.01h-4.64v6.1h4.67Z"/>
      <path class="cls-1" d="M292.5,81.78l1.92-2.28c1.74,1.5,3.5,2.36,5.73,2.36,1.97,0,3.22-.94,3.22-2.28v-.05c0-1.29-.73-2-4.1-2.77-3.87-.94-6.04-2.08-6.04-5.42v-.05c0-3.11,2.59-5.27,6.2-5.27,2.65,0,4.75.8,6.59,2.28l-1.71,2.41c-1.63-1.22-3.27-1.87-4.93-1.87-1.87,0-2.96.96-2.96,2.15v.05c0,1.4.83,2.02,4.33,2.85,3.84.93,5.81,2.31,5.81,5.32v.05c0,3.4-2.67,5.42-6.49,5.42-2.78,0-5.4-.96-7.58-2.91"/>
      <path class="cls-1" d="M309.15,61.86h3.32v2.9h-3.32v-2.9ZM309.21,66.26h3.19v18.16h-3.19v-18.16Z"/>
      <polygon class="cls-1" points="320.41 69.22 314.65 69.22 314.65 66.26 329.39 66.26 329.39 69.22 323.63 69.22 323.63 84.43 320.41 84.43 320.41 69.22"/>
      <polygon class="cls-1" points="331.46 66.26 344.93 66.26 344.93 69.12 334.65 69.12 334.65 73.84 343.76 73.84 343.76 76.69 334.65 76.69 334.65 81.57 345.06 81.57 345.06 84.43 331.46 84.43 331.46 66.26"/>
      <path class="cls-1" d="M346.32,81.78l1.92-2.28c1.74,1.5,3.5,2.36,5.73,2.36,1.97,0,3.22-.94,3.22-2.28v-.05c0-1.29-.73-2-4.1-2.77-3.86-.94-6.04-2.08-6.04-5.42v-.05c0-3.11,2.6-5.27,6.2-5.27,2.65,0,4.75.8,6.59,2.28l-1.71,2.41c-1.63-1.22-3.27-1.87-4.93-1.87-1.87,0-2.96.96-2.96,2.15v.05c0,1.4.83,2.02,4.33,2.85,3.84.93,5.81,2.31,5.81,5.32v.05c0,3.4-2.67,5.42-6.49,5.42-2.78,0-5.4-.96-7.58-2.91"/>
      <path class="cls-1" d="M362.98,61.86h3.32v2.9h-3.32v-2.9ZM363.03,66.26h3.19v18.16h-3.19v-18.16Z"/>
      <path class="cls-1" d="M.75,110.83l.6-.65c1.92,1.81,4.05,2.75,6.69,2.75,3.14,0,5.19-1.71,5.19-3.99v-.05c0-2.13-1.22-3.27-5.6-4.18-4.44-.88-6.17-2.28-6.17-4.9v-.05c0-2.59,2.46-4.69,5.89-4.69,2.49,0,4.46.78,6.17,2.13l-.54.7c-1.66-1.32-3.55-2.02-5.68-2.02-2.98,0-4.95,1.79-4.95,3.81v.05c0,2.1,1.22,3.27,5.63,4.18,4.51.91,6.15,2.36,6.15,4.9v.05c0,2.8-2.41,4.88-6.12,4.88-2.83,0-5.19-1.01-7.24-2.91"/>
      <path class="cls-1" d="M19.87,105.64v-10.32h.88v10.27c0,4.83,2.59,7.37,6.54,7.37s6.46-2.44,6.46-7.32v-10.32h.88v10.25c0,5.42-2.98,8.2-7.37,8.2s-7.39-2.75-7.39-8.12M24.59,91.89h1.35v1.58h-1.35v-1.58ZM28.59,91.89h1.35v1.58h-1.35v-1.58Z"/>
      <path class="cls-1" d="M41.35,95.32h7.5c2.31,0,4.07.65,5.19,1.74.83.86,1.32,2.02,1.32,3.37v.05c0,3.06-2.36,4.85-5.71,5.14l6.04,7.86h-1.12l-5.91-7.76h-6.43v7.76h-.88v-18.16ZM48.61,104.92c3.74,0,5.86-1.82,5.86-4.38v-.05c0-2.72-2.1-4.36-5.68-4.36h-6.56v8.79h6.38Z"/>
      <polygon class="cls-1" points="61.74 95.32 74.53 95.32 74.53 96.12 62.62 96.12 62.62 103.93 73.39 103.93 73.39 104.74 62.62 104.74 62.62 112.68 74.66 112.68 74.66 113.48 61.74 113.48 61.74 95.32"/>
      <polygon class="cls-1" points="80.6 95.32 81.48 95.32 81.48 107.46 93.65 95.32 94.87 95.32 86.95 103.13 95.18 113.48 94.04 113.48 86.33 103.72 81.48 108.52 81.48 113.48 80.6 113.48 80.6 95.32"/>
      <polygon class="cls-1" points="100.6 95.32 101.48 95.32 101.48 112.68 112.43 112.68 112.43 113.48 100.6 113.48 100.6 95.32"/>
      <path class="cls-1" d="M117.64,91.76h1.4v1.58h-1.4v-1.58ZM117.9,95.32h.88v18.16h-.88v-18.16Z"/>
      <polygon class="cls-1" points="135.05 95.32 147.83 95.32 147.83 96.12 135.93 96.12 135.93 103.93 146.69 103.93 146.69 104.74 135.93 104.74 135.93 112.68 147.96 112.68 147.96 113.48 135.05 113.48 135.05 95.32"/>
      <path class="cls-1" d="M152.71,104.45v-.05c0-4.88,3.5-9.39,8.98-9.39,2.85,0,4.62.86,6.43,2.36l-.57.67c-1.58-1.32-3.24-2.23-5.92-2.23-4.82,0-8.02,4.1-8.02,8.56v.05c0,4.7,3.04,8.59,8.15,8.59,2.54,0,4.75-1.12,6.2-2.33v-5.58h-6.46v-.86h7.32v6.77c-1.69,1.53-4.15,2.78-7.08,2.78-5.71,0-9.03-4.25-9.03-9.34M158.11,91.14h.73c.26.86,1.06,1.53,2.62,1.53s2.33-.65,2.62-1.53h.73c-.21,1.38-1.4,2.34-3.35,2.34s-3.14-.96-3.35-2.34"/>
      <path class="cls-1" d="M175.3,91.76h1.4v1.58h-1.4v-1.58ZM175.56,95.32h.88v18.16h-.88v-18.16Z"/>
      <polygon class="cls-1" points="188.38 96.12 181.92 96.12 181.92 95.32 195.75 95.32 195.75 96.12 189.26 96.12 189.26 113.48 188.38 113.48 188.38 96.12"/>
      <path class="cls-1" d="M200.93,91.76h1.4v1.58h-1.4v-1.58ZM201.19,95.32h.88v18.16h-.88v-18.16Z"/>
      <polygon class="cls-1" points="209.26 95.32 210.09 95.32 217.77 106.37 225.42 95.32 226.25 95.32 226.25 113.48 225.37 113.48 225.37 96.85 217.77 107.75 217.72 107.75 210.12 96.85 210.12 113.48 209.26 113.48 209.26 95.32"/>
      <polygon class="cls-1" points="242.33 95.32 243.16 95.32 250.84 106.37 258.5 95.32 259.33 95.32 259.33 113.48 258.44 113.48 258.44 96.85 250.84 107.75 250.79 107.75 243.19 96.85 243.19 113.48 242.33 113.48 242.33 95.32"/>
      <polygon class="cls-1" points="266.33 95.32 279.12 95.32 279.12 96.12 267.21 96.12 267.21 103.93 277.98 103.93 277.98 104.74 267.21 104.74 267.21 112.68 279.25 112.68 279.25 113.48 266.33 113.48 266.33 95.32"/>
      <path class="cls-1" d="M285.19,95.32h7.5c2.31,0,4.07.65,5.19,1.74.83.86,1.32,2.02,1.32,3.37v.05c0,3.06-2.36,4.85-5.71,5.14l6.05,7.86h-1.11l-5.92-7.76h-6.43v7.76h-.88v-18.16ZM292.45,104.92c3.74,0,5.86-1.82,5.86-4.38v-.05c0-2.72-2.1-4.36-5.68-4.36h-6.56v8.79h6.38Z"/>
      <polygon class="cls-1" points="305.58 95.32 306.46 95.32 306.46 107.46 318.62 95.32 319.84 95.32 311.93 103.13 320.16 113.48 319.01 113.48 311.31 103.72 306.46 108.52 306.46 113.48 305.58 113.48 305.58 95.32"/>
      <polygon class="cls-1" points="325.58 95.32 338.37 95.32 338.37 96.12 326.46 96.12 326.46 103.93 337.22 103.93 337.22 104.74 326.46 104.74 326.46 112.68 338.49 112.68 338.49 113.48 325.58 113.48 325.58 95.32"/>
      <polygon class="cls-1" points="343.47 112.99 356.34 96.12 343.92 96.12 343.92 95.32 357.59 95.32 357.59 95.81 344.72 112.68 357.53 112.68 357.53 113.48 343.47 113.48 343.47 112.99"/>
      <path class="cls-1" d="M363.66,91.76h1.4v1.58h-1.4v-1.58ZM363.92,95.32h.88v18.16h-.88v-18.16Z"/>
      <path class="cls-1" d="M20.39.42h5.96l16.1,36.84h-6.79l-3.71-8.83H14.64l-3.76,8.83h-6.59L20.39.42ZM29.59,22.73l-6.32-14.63-6.27,14.63h12.6Z"/>
      <polygon class="cls-1" points="46.11 .68 52.06 .68 71.66 25.97 71.66 .68 77.98 .68 77.98 37.26 72.6 37.26 52.43 11.24 52.43 37.26 46.11 37.26 46.11 .68"/>
      <polygon class="cls-1" points="93.77 6.64 82.17 6.64 82.17 .68 111.85 .68 111.85 6.64 100.25 6.64 100.25 37.26 93.77 37.26 93.77 6.64"/>
      <path class="cls-1" d="M124.29.42h5.96l16.09,36.84h-6.79l-3.71-8.83h-17.3l-3.76,8.83h-6.58L124.29.42ZM133.49,22.73l-6.32-14.63-6.27,14.63h12.6Z"/>
      <polygon class="cls-1" points="150 .68 156.43 .68 156.43 31.41 175.66 31.41 175.66 37.26 150 37.26 150 .68"/>
      <polygon class="cls-1" points="183.71 22.84 169.18 .68 176.81 .68 187 16.83 197.35 .68 204.72 .68 190.19 22.68 190.19 37.26 183.71 37.26 183.71 22.84"/>
      <path class="cls-1" d="M214.96.42h5.96l16.1,36.84h-6.79l-3.71-8.83h-17.3l-3.76,8.83h-6.58L214.96.42ZM224.16,22.73l-6.32-14.63-6.27,14.63h12.59Z"/>
      <path class="cls-1" d="M250.71,31.77l6.53-7.79c3.97,3.03,8.52,4.28,12.8,4.28,2.19,0,3.13-.57,3.13-1.57v-.11c0-1.05-1.15-1.62-5.07-2.4-8.21-1.67-15.42-4.02-15.42-11.76v-.1c0-6.95,5.43-12.33,15.52-12.33,7.06,0,12.28,1.67,16.51,5.02l-5.96,8.26c-3.45-2.51-7.58-3.6-10.97-3.6-1.83,0-2.67.63-2.67,1.51v.11c0,.99.99,1.62,4.86,2.35,9.35,1.73,15.63,4.44,15.63,11.81v.1c0,7.68-6.32,12.39-16.15,12.39-7.42,0-14.11-2.09-18.76-6.17"/>
      <polygon class="cls-1" points="288.44 .68 319.64 .68 319.64 10.71 300.46 10.71 300.46 14.42 318.33 14.42 318.33 23.26 300.46 23.26 300.46 27.23 319.9 27.23 319.9 37.26 288.44 37.26 288.44 .68"/>
      <polygon class="cls-1" points="323.19 .68 335.95 .68 343.78 13.54 351.62 .68 364.37 .68 364.37 37.26 352.2 37.26 352.2 19.13 343.78 32.14 343.57 32.14 335.16 19.13 335.16 37.26 323.19 37.26 323.19 .68"/>
      <rect class="cls-1" x="5.8" y="49.89" width="360.37" height="2.42"/>
    </g>
  </g>
</svg>