<?xml version="1.0" encoding="UTF-8"?>
<svg id="katman_2" xmlns="http://www.w3.org/2000/svg" xmlns:xlink="http://www.w3.org/1999/xlink" viewBox="0 0 438.85 207">
  <defs>
    <style>
      .cls-1 {
        opacity: .9;
      }

      .cls-2 {
        fill: #fff;
      }

      .cls-3 {
        fill: none;
      }

      .cls-4 {
        fill: url(#Adsız_degrade_13);
      }

      .cls-5 {
        fill: #494445;
      }

      .cls-6 {
        clip-path: url(#clippath);
      }
    </style>
    <clipPath id="clippath">
      <rect class="cls-3" width="438.85" height="207"/>
    </clipPath>
    <linearGradient id="Adsız_degrade_13" data-name="Adsız degrade 13" x1="0" y1="103.5" x2="438.85" y2="103.5" gradientUnits="userSpaceOnUse">
      <stop offset="0" stop-color="#1d71b4"/>
      <stop offset="1" stop-color="#197480"/>
    </linearGradient>
  </defs>
  <g id="Layer_1">
    <g class="cls-1">
      <g class="cls-6">
        <path class="cls-4" d="M438.85,101.51C438.85,45.45,392.95,0,336.32,0H0v207h336.32c56.63,0,102.54-45.45,102.54-101.51,0-.67-.04-1.33-.05-1.99.01-.66.05-1.32.05-1.99Z"/>
      </g>
    </g>
    <g>
      <path class="cls-5" d="M29.9,113.31h2.96l7.99,18.29h-3.37l-1.84-4.38h-8.59l-1.87,4.38h-3.27l7.99-18.29ZM34.46,124.38l-3.14-7.26-3.11,7.26h6.25Z"/>
      <polygon class="cls-5" points="42.66 113.43 45.61 113.43 55.34 125.99 55.34 113.43 58.48 113.43 58.48 131.59 55.81 131.59 45.8 118.67 45.8 131.59 42.66 131.59 42.66 113.43"/>
      <polygon class="cls-5" points="66.32 116.39 60.56 116.39 60.56 113.43 75.29 113.43 75.29 116.39 69.53 116.39 69.53 131.59 66.32 131.59 66.32 116.39"/>
      <path class="cls-5" d="M81.47,113.31h2.96l7.99,18.29h-3.37l-1.84-4.38h-8.59l-1.87,4.38h-3.27l7.99-18.29ZM86.03,124.38l-3.14-7.26-3.11,7.26h6.25Z"/>
      <polygon class="cls-5" points="94.23 113.43 97.42 113.43 97.42 128.69 106.96 128.69 106.96 131.59 94.23 131.59 94.23 113.43"/>
      <polygon class="cls-5" points="110.96 124.43 103.75 113.43 107.53 113.43 112.59 121.45 117.73 113.43 121.39 113.43 114.18 124.36 114.18 131.59 110.96 131.59 110.96 124.43"/>
      <path class="cls-5" d="M126.47,113.31h2.96l7.99,18.29h-3.37l-1.84-4.38h-8.59l-1.87,4.38h-3.27l7.99-18.29ZM131.04,124.38l-3.14-7.26-3.12,7.26h6.25Z"/>
      <path class="cls-5" d="M145.72,113.43h8.14c2.08,0,3.71.57,4.75,1.61.81.8,1.22,1.79,1.22,3.01v.05c0,2.18-1.24,3.35-2.59,4.05,2.13.73,3.61,1.95,3.61,4.41v.05c0,3.24-2.67,4.98-6.72,4.98h-8.41v-18.16ZM156.64,118.57c0-1.43-1.14-2.31-3.19-2.31h-4.59v4.83h4.36c2.05,0,3.43-.8,3.43-2.46v-.05ZM153.92,123.79h-5.06v4.98h5.29c2.18,0,3.5-.85,3.5-2.49v-.05c0-1.53-1.22-2.44-3.74-2.44"/>
      <path class="cls-5" d="M163.28,109.03h3.32v2.9h-3.32v-2.9ZM163.33,113.43h3.19v18.16h-3.19v-18.16Z"/>
      <polygon class="cls-5" points="170.08 113.43 173.27 113.43 173.27 128.69 182.81 128.69 182.81 131.59 170.08 131.59 170.08 113.43"/>
      <path class="cls-5" d="M184.96,109.03h3.32v2.9h-3.32v-2.9ZM185.02,113.43h3.19v18.16h-3.19v-18.16Z"/>
      <polygon class="cls-5" points="191.76 113.43 195.16 113.43 200.69 122.02 206.21 113.43 209.61 113.43 209.61 131.59 206.42 131.59 206.42 118.57 200.69 127.13 200.58 127.13 194.9 118.62 194.9 131.59 191.76 131.59 191.76 113.43"/>
      <path class="cls-5" d="M219.18,123.89v-10.46h3.19v10.33c0,3.37,1.74,5.16,4.59,5.16s4.57-1.68,4.57-5.03v-10.46h3.19v10.3c0,5.42-3.06,8.15-7.81,8.15s-7.73-2.72-7.73-7.99M222.66,109.05h3.24v2.91h-3.24v-2.91ZM228,109.05h3.22v2.91h-3.22v-2.91Z"/>
      <polygon class="cls-5" points="237.8 113.43 240.76 113.43 250.49 125.99 250.49 113.43 253.63 113.43 253.63 131.59 250.96 131.59 240.94 118.67 240.94 131.59 237.8 131.59 237.8 113.43"/>
      <path class="cls-5" d="M257.13,109.03h3.32v2.9h-3.32v-2.9ZM257.18,113.43h3.19v18.16h-3.19v-18.16Z"/>
      <polygon class="cls-5" points="262.37 113.43 265.9 113.43 271.37 127.39 276.82 113.43 280.27 113.43 272.75 131.72 269.92 131.72 262.37 113.43"/>
      <polygon class="cls-5" points="282.08 113.43 295.55 113.43 295.55 116.29 285.27 116.29 285.27 121.01 294.38 121.01 294.38 123.86 285.27 123.86 285.27 128.74 295.68 128.74 295.68 131.59 282.08 131.59 282.08 113.43"/>
      <path class="cls-5" d="M298.17,113.43h8.09c2.28,0,4.07.68,5.24,1.82.96.99,1.51,2.33,1.51,3.92v.05c0,2.98-1.79,4.77-4.31,5.5l4.9,6.87h-3.79l-4.46-6.33h-3.99v6.33h-3.19v-18.16ZM306.03,122.44c2.28,0,3.74-1.19,3.74-3.04v-.05c0-1.95-1.4-3.01-3.76-3.01h-4.64v6.1h4.67Z"/>
      <path class="cls-5" d="M314.41,128.95l1.92-2.28c1.74,1.5,3.5,2.36,5.73,2.36,1.97,0,3.22-.94,3.22-2.28v-.05c0-1.29-.73-2-4.1-2.77-3.87-.94-6.04-2.08-6.04-5.42v-.05c0-3.11,2.59-5.27,6.2-5.27,2.65,0,4.75.8,6.59,2.28l-1.71,2.41c-1.63-1.22-3.27-1.87-4.93-1.87-1.87,0-2.96.96-2.96,2.15v.05c0,1.4.83,2.02,4.33,2.85,3.84.93,5.81,2.31,5.81,5.32v.05c0,3.4-2.67,5.42-6.49,5.42-2.78,0-5.4-.96-7.58-2.91"/>
      <path class="cls-5" d="M331.06,109.03h3.32v2.9h-3.32v-2.9ZM331.11,113.43h3.19v18.16h-3.19v-18.16Z"/>
      <polygon class="cls-5" points="342.32 116.39 336.56 116.39 336.56 113.43 351.29 113.43 351.29 116.39 345.53 116.39 345.53 131.59 342.32 131.59 342.32 116.39"/>
      <polygon class="cls-5" points="353.37 113.43 366.83 113.43 366.83 116.29 356.56 116.29 356.56 121.01 365.66 121.01 365.66 123.86 356.56 123.86 356.56 128.74 366.96 128.74 366.96 131.59 353.37 131.59 353.37 113.43"/>
      <path class="cls-5" d="M368.23,128.95l1.92-2.28c1.74,1.5,3.5,2.36,5.73,2.36,1.97,0,3.22-.94,3.22-2.28v-.05c0-1.29-.73-2-4.1-2.77-3.86-.94-6.04-2.08-6.04-5.42v-.05c0-3.11,2.6-5.27,6.2-5.27,2.65,0,4.75.8,6.59,2.28l-1.71,2.41c-1.63-1.22-3.27-1.87-4.93-1.87-1.87,0-2.96.96-2.96,2.15v.05c0,1.4.83,2.02,4.33,2.85,3.84.93,5.81,2.31,5.81,5.32v.05c0,3.4-2.67,5.42-6.49,5.42-2.78,0-5.4-.96-7.58-2.91"/>
      <path class="cls-5" d="M384.89,109.03h3.32v2.9h-3.32v-2.9ZM384.94,113.43h3.19v18.16h-3.19v-18.16Z"/>
      <path class="cls-5" d="M22.66,158l.6-.65c1.92,1.81,4.05,2.75,6.69,2.75,3.14,0,5.19-1.71,5.19-3.99v-.05c0-2.13-1.22-3.27-5.6-4.18-4.44-.88-6.17-2.28-6.17-4.9v-.05c0-2.59,2.46-4.69,5.89-4.69,2.49,0,4.46.78,6.17,2.13l-.54.7c-1.66-1.32-3.55-2.02-5.68-2.02-2.98,0-4.95,1.79-4.95,3.81v.05c0,2.1,1.22,3.27,5.63,4.18,4.51.91,6.15,2.36,6.15,4.9v.05c0,2.8-2.41,4.88-6.12,4.88-2.83,0-5.19-1.01-7.24-2.91"/>
      <path class="cls-5" d="M41.78,152.81v-10.32h.88v10.27c0,4.83,2.59,7.37,6.54,7.37s6.46-2.44,6.46-7.32v-10.32h.88v10.25c0,5.42-2.98,8.2-7.37,8.2s-7.39-2.75-7.39-8.12M46.5,139.06h1.35v1.58h-1.35v-1.58ZM50.49,139.06h1.35v1.58h-1.35v-1.58Z"/>
      <path class="cls-5" d="M63.25,142.49h7.5c2.31,0,4.07.65,5.19,1.74.83.86,1.32,2.02,1.32,3.37v.05c0,3.06-2.36,4.85-5.71,5.14l6.04,7.86h-1.12l-5.91-7.76h-6.43v7.76h-.88v-18.16ZM70.52,152.09c3.74,0,5.86-1.82,5.86-4.38v-.05c0-2.72-2.1-4.36-5.68-4.36h-6.56v8.79h6.38Z"/>
      <polygon class="cls-5" points="83.64 142.49 96.43 142.49 96.43 143.29 84.52 143.29 84.52 151.1 95.29 151.1 95.29 151.91 84.52 151.91 84.52 159.85 96.56 159.85 96.56 160.65 83.64 160.65 83.64 142.49"/>
      <polygon class="cls-5" points="102.5 142.49 103.38 142.49 103.38 154.63 115.55 142.49 116.77 142.49 108.86 150.3 117.08 160.65 115.94 160.65 108.23 150.89 103.38 155.69 103.38 160.65 102.5 160.65 102.5 142.49"/>
      <polygon class="cls-5" points="122.5 142.49 123.38 142.49 123.38 159.85 134.33 159.85 134.33 160.65 122.5 160.65 122.5 142.49"/>
      <path class="cls-5" d="M139.54,138.93h1.4v1.58h-1.4v-1.58ZM139.8,142.49h.88v18.16h-.88v-18.16Z"/>
      <polygon class="cls-5" points="156.95 142.49 169.74 142.49 169.74 143.29 157.83 143.29 157.83 151.1 168.6 151.1 168.6 151.91 157.83 151.91 157.83 159.85 169.87 159.85 169.87 160.65 156.95 160.65 156.95 142.49"/>
      <path class="cls-5" d="M174.61,151.62v-.05c0-4.88,3.5-9.39,8.98-9.39,2.85,0,4.62.86,6.43,2.36l-.57.67c-1.58-1.32-3.24-2.23-5.92-2.23-4.82,0-8.02,4.1-8.02,8.56v.05c0,4.7,3.04,8.59,8.15,8.59,2.54,0,4.75-1.12,6.2-2.33v-5.58h-6.46v-.86h7.32v6.77c-1.69,1.53-4.15,2.78-7.08,2.78-5.71,0-9.03-4.25-9.03-9.34M180.01,138.31h.73c.26.86,1.06,1.53,2.62,1.53s2.33-.65,2.62-1.53h.73c-.21,1.38-1.4,2.34-3.35,2.34s-3.14-.96-3.35-2.34"/>
      <path class="cls-5" d="M197.21,138.93h1.4v1.58h-1.4v-1.58ZM197.47,142.49h.88v18.16h-.88v-18.16Z"/>
      <polygon class="cls-5" points="210.28 143.29 203.82 143.29 203.82 142.49 217.65 142.49 217.65 143.29 211.17 143.29 211.17 160.65 210.28 160.65 210.28 143.29"/>
      <path class="cls-5" d="M222.84,138.93h1.4v1.58h-1.4v-1.58ZM223.1,142.49h.88v18.16h-.88v-18.16Z"/>
      <polygon class="cls-5" points="231.17 142.49 231.99 142.49 239.67 153.54 247.33 142.49 248.16 142.49 248.16 160.65 247.28 160.65 247.28 144.02 239.67 154.92 239.62 154.92 232.02 144.02 232.02 160.65 231.17 160.65 231.17 142.49"/>
      <polygon class="cls-5" points="264.24 142.49 265.07 142.49 272.75 153.54 280.4 142.49 281.23 142.49 281.23 160.65 280.35 160.65 280.35 144.02 272.75 154.92 272.7 154.92 265.09 144.02 265.09 160.65 264.24 160.65 264.24 142.49"/>
      <polygon class="cls-5" points="288.23 142.49 301.02 142.49 301.02 143.29 289.12 143.29 289.12 151.1 299.88 151.1 299.88 151.91 289.12 151.91 289.12 159.85 301.15 159.85 301.15 160.65 288.23 160.65 288.23 142.49"/>
      <path class="cls-5" d="M307.09,142.49h7.5c2.31,0,4.07.65,5.19,1.74.83.86,1.32,2.02,1.32,3.37v.05c0,3.06-2.36,4.85-5.71,5.14l6.05,7.86h-1.11l-5.92-7.76h-6.43v7.76h-.88v-18.16ZM314.36,152.09c3.74,0,5.86-1.82,5.86-4.38v-.05c0-2.72-2.1-4.36-5.68-4.36h-6.56v8.79h6.38Z"/>
      <polygon class="cls-5" points="327.48 142.49 328.36 142.49 328.36 154.63 340.53 142.49 341.75 142.49 333.84 150.3 342.06 160.65 340.92 160.65 333.21 150.89 328.36 155.69 328.36 160.65 327.48 160.65 327.48 142.49"/>
      <polygon class="cls-5" points="347.48 142.49 360.27 142.49 360.27 143.29 348.36 143.29 348.36 151.1 359.13 151.1 359.13 151.91 348.36 151.91 348.36 159.85 360.4 159.85 360.4 160.65 347.48 160.65 347.48 142.49"/>
      <polygon class="cls-5" points="365.38 160.16 378.25 143.29 365.82 143.29 365.82 142.49 379.49 142.49 379.49 142.98 366.62 159.85 379.44 159.85 379.44 160.65 365.38 160.65 365.38 160.16"/>
      <path class="cls-5" d="M385.56,138.93h1.4v1.58h-1.4v-1.58ZM385.82,142.49h.88v18.16h-.88v-18.16Z"/>
      <path class="cls-5" d="M42.3,47.59h5.96l16.1,36.84h-6.79l-3.71-8.83h-17.3l-3.76,8.83h-6.59l16.1-36.84ZM51.5,69.9l-6.32-14.63-6.27,14.63h12.6Z"/>
      <polygon class="cls-5" points="68.01 47.85 73.97 47.85 93.57 73.14 93.57 47.85 99.89 47.85 99.89 84.43 94.51 84.43 74.33 58.41 74.33 84.43 68.01 84.43 68.01 47.85"/>
      <polygon class="cls-5" points="115.67 53.81 104.07 53.81 104.07 47.85 133.75 47.85 133.75 53.81 122.15 53.81 122.15 84.43 115.67 84.43 115.67 53.81"/>
      <path class="cls-5" d="M146.19,47.59h5.96l16.09,36.84h-6.79l-3.71-8.83h-17.3l-3.76,8.83h-6.58l16.1-36.84ZM155.39,69.9l-6.32-14.63-6.27,14.63h12.6Z"/>
      <polygon class="cls-5" points="171.91 47.85 178.33 47.85 178.33 78.58 197.57 78.58 197.57 84.43 171.91 84.43 171.91 47.85"/>
      <polygon class="cls-5" points="205.61 70.01 191.08 47.85 198.72 47.85 208.91 64 219.25 47.85 226.62 47.85 212.09 69.85 212.09 84.43 205.61 84.43 205.61 70.01"/>
      <path class="cls-5" d="M236.87,47.59h5.96l16.1,36.84h-6.79l-3.71-8.83h-17.3l-3.76,8.83h-6.58l16.1-36.84ZM246.06,69.9l-6.32-14.63-6.27,14.63h12.59Z"/>
      <path class="cls-5" d="M272.61,78.94l6.53-7.79c3.97,3.03,8.52,4.28,12.8,4.28,2.19,0,3.13-.57,3.13-1.57v-.11c0-1.05-1.15-1.62-5.07-2.4-8.21-1.67-15.42-4.02-15.42-11.76v-.1c0-6.95,5.43-12.33,15.52-12.33,7.06,0,12.28,1.67,16.51,5.02l-5.96,8.26c-3.45-2.51-7.58-3.6-10.97-3.6-1.83,0-2.67.63-2.67,1.51v.11c0,.99.99,1.62,4.86,2.35,9.35,1.73,15.63,4.44,15.63,11.81v.1c0,7.68-6.32,12.39-16.15,12.39-7.42,0-14.11-2.09-18.76-6.17"/>
      <polygon class="cls-5" points="310.35 47.85 341.54 47.85 341.54 57.88 322.36 57.88 322.36 61.59 340.24 61.59 340.24 70.43 322.36 70.43 322.36 74.4 341.81 74.4 341.81 84.43 310.35 84.43 310.35 47.85"/>
      <polygon class="cls-5" points="345.1 47.85 357.85 47.85 365.69 60.7 373.53 47.85 386.28 47.85 386.28 84.43 374.1 84.43 374.1 66.3 365.69 79.31 365.48 79.31 357.07 66.3 357.07 84.43 345.1 84.43 345.1 47.85"/>
      <rect class="cls-5" x="27.71" y="97.06" width="360.37" height="2.42"/>
      <path class="cls-2" d="M28.77,112.17h2.96l7.99,18.29h-3.37l-1.84-4.38h-8.59l-1.87,4.38h-3.27l7.99-18.29ZM33.33,123.25l-3.14-7.26-3.11,7.26h6.25Z"/>
      <polygon class="cls-2" points="41.53 112.3 44.48 112.3 54.21 124.86 54.21 112.3 57.35 112.3 57.35 130.46 54.68 130.46 44.67 117.54 44.67 130.46 41.53 130.46 41.53 112.3"/>
      <polygon class="cls-2" points="65.19 115.26 59.43 115.26 59.43 112.3 74.16 112.3 74.16 115.26 68.4 115.26 68.4 130.46 65.19 130.46 65.19 115.26"/>
      <path class="cls-2" d="M80.33,112.17h2.96l7.99,18.29h-3.37l-1.84-4.38h-8.59l-1.87,4.38h-3.27l7.99-18.29ZM84.9,123.25l-3.14-7.26-3.11,7.26h6.25Z"/>
      <polygon class="cls-2" points="93.1 112.3 96.29 112.3 96.29 127.56 105.83 127.56 105.83 130.46 93.1 130.46 93.1 112.3"/>
      <polygon class="cls-2" points="109.83 123.3 102.62 112.3 106.4 112.3 111.46 120.32 116.6 112.3 120.26 112.3 113.05 123.23 113.05 130.46 109.83 130.46 109.83 123.3"/>
      <path class="cls-2" d="M125.34,112.17h2.96l7.99,18.29h-3.37l-1.84-4.38h-8.59l-1.87,4.38h-3.27l7.99-18.29ZM129.91,123.25l-3.14-7.26-3.11,7.26h6.25Z"/>
      <path class="cls-2" d="M144.59,112.3h8.14c2.08,0,3.71.57,4.75,1.61.81.8,1.22,1.79,1.22,3.01v.05c0,2.18-1.24,3.35-2.59,4.05,2.13.73,3.61,1.95,3.61,4.41v.05c0,3.24-2.67,4.98-6.72,4.98h-8.41v-18.16ZM155.51,117.44c0-1.43-1.14-2.31-3.19-2.31h-4.59v4.83h4.36c2.05,0,3.43-.8,3.43-2.46v-.05ZM152.79,122.66h-5.06v4.98h5.29c2.18,0,3.5-.85,3.5-2.49v-.05c0-1.53-1.22-2.44-3.74-2.44"/>
      <path class="cls-2" d="M162.15,107.89h3.32v2.9h-3.32v-2.9ZM162.2,112.3h3.19v18.16h-3.19v-18.16Z"/>
      <polygon class="cls-2" points="168.95 112.3 172.14 112.3 172.14 127.56 181.68 127.56 181.68 130.46 168.95 130.46 168.95 112.3"/>
      <path class="cls-2" d="M183.83,107.89h3.32v2.9h-3.32v-2.9ZM183.89,112.3h3.19v18.16h-3.19v-18.16Z"/>
      <polygon class="cls-2" points="190.63 112.3 194.03 112.3 199.56 120.89 205.08 112.3 208.48 112.3 208.48 130.46 205.29 130.46 205.29 117.44 199.56 126 199.45 126 193.77 117.49 193.77 130.46 190.63 130.46 190.63 112.3"/>
      <path class="cls-2" d="M218.05,122.76v-10.46h3.19v10.33c0,3.37,1.74,5.16,4.59,5.16s4.57-1.68,4.57-5.03v-10.46h3.19v10.3c0,5.42-3.06,8.15-7.81,8.15s-7.73-2.72-7.73-7.99M221.53,107.92h3.24v2.91h-3.24v-2.91ZM226.87,107.92h3.22v2.91h-3.22v-2.91Z"/>
      <polygon class="cls-2" points="236.67 112.3 239.63 112.3 249.36 124.86 249.36 112.3 252.5 112.3 252.5 130.46 249.83 130.46 239.81 117.54 239.81 130.46 236.67 130.46 236.67 112.3"/>
      <path class="cls-2" d="M256,107.89h3.32v2.9h-3.32v-2.9ZM256.05,112.3h3.19v18.16h-3.19v-18.16Z"/>
      <polygon class="cls-2" points="261.24 112.3 264.77 112.3 270.24 126.26 275.69 112.3 279.14 112.3 271.62 130.59 268.79 130.59 261.24 112.3"/>
      <polygon class="cls-2" points="280.95 112.3 294.42 112.3 294.42 115.16 284.14 115.16 284.14 119.88 293.25 119.88 293.25 122.73 284.14 122.73 284.14 127.61 294.55 127.61 294.55 130.46 280.95 130.46 280.95 112.3"/>
      <path class="cls-2" d="M297.04,112.3h8.09c2.28,0,4.07.68,5.24,1.82.96.99,1.51,2.33,1.51,3.92v.05c0,2.98-1.79,4.77-4.31,5.5l4.9,6.87h-3.79l-4.46-6.33h-3.99v6.33h-3.19v-18.16ZM304.9,121.31c2.28,0,3.74-1.19,3.74-3.04v-.05c0-1.95-1.4-3.01-3.76-3.01h-4.64v6.1h4.67Z"/>
      <path class="cls-2" d="M313.28,127.82l1.92-2.28c1.74,1.5,3.5,2.36,5.73,2.36,1.97,0,3.22-.94,3.22-2.28v-.05c0-1.29-.73-2-4.1-2.77-3.87-.94-6.04-2.08-6.04-5.42v-.05c0-3.11,2.59-5.27,6.2-5.27,2.65,0,4.75.8,6.59,2.28l-1.71,2.41c-1.63-1.22-3.27-1.87-4.93-1.87-1.87,0-2.96.96-2.96,2.15v.05c0,1.4.83,2.02,4.33,2.85,3.84.93,5.81,2.31,5.81,5.32v.05c0,3.4-2.67,5.42-6.49,5.42-2.78,0-5.4-.96-7.58-2.91"/>
      <path class="cls-2" d="M329.93,107.89h3.32v2.9h-3.32v-2.9ZM329.98,112.3h3.19v18.16h-3.19v-18.16Z"/>
      <polygon class="cls-2" points="341.19 115.26 335.43 115.26 335.43 112.3 350.16 112.3 350.16 115.26 344.4 115.26 344.4 130.46 341.19 130.46 341.19 115.26"/>
      <polygon class="cls-2" points="352.24 112.3 365.7 112.3 365.7 115.16 355.43 115.16 355.43 119.88 364.53 119.88 364.53 122.73 355.43 122.73 355.43 127.61 365.83 127.61 365.83 130.46 352.24 130.46 352.24 112.3"/>
      <path class="cls-2" d="M367.1,127.82l1.92-2.28c1.74,1.5,3.5,2.36,5.73,2.36,1.97,0,3.22-.94,3.22-2.28v-.05c0-1.29-.73-2-4.1-2.77-3.86-.94-6.04-2.08-6.04-5.42v-.05c0-3.11,2.6-5.27,6.2-5.27,2.65,0,4.75.8,6.59,2.28l-1.71,2.41c-1.63-1.22-3.27-1.87-4.93-1.87-1.87,0-2.96.96-2.96,2.15v.05c0,1.4.83,2.02,4.33,2.85,3.84.93,5.81,2.31,5.81,5.32v.05c0,3.4-2.67,5.42-6.49,5.42-2.78,0-5.4-.96-7.58-2.91"/>
      <path class="cls-2" d="M383.76,107.89h3.32v2.9h-3.32v-2.9ZM383.81,112.3h3.19v18.16h-3.19v-18.16Z"/>
      <path class="cls-2" d="M21.53,156.87l.6-.65c1.92,1.81,4.05,2.75,6.69,2.75,3.14,0,5.19-1.71,5.19-3.99v-.05c0-2.13-1.22-3.27-5.6-4.18-4.44-.88-6.17-2.28-6.17-4.9v-.05c0-2.59,2.46-4.69,5.89-4.69,2.49,0,4.46.78,6.17,2.13l-.54.7c-1.66-1.32-3.55-2.02-5.68-2.02-2.98,0-4.95,1.79-4.95,3.81v.05c0,2.1,1.22,3.27,5.63,4.18,4.51.91,6.15,2.36,6.15,4.9v.05c0,2.8-2.41,4.88-6.12,4.88-2.83,0-5.19-1.01-7.24-2.91"/>
      <path class="cls-2" d="M40.65,151.68v-10.32h.88v10.27c0,4.83,2.59,7.37,6.54,7.37s6.46-2.44,6.46-7.32v-10.32h.88v10.25c0,5.42-2.98,8.2-7.37,8.2s-7.39-2.75-7.39-8.12M45.37,137.93h1.35v1.58h-1.35v-1.58ZM49.36,137.93h1.35v1.58h-1.35v-1.58Z"/>
      <path class="cls-2" d="M62.12,141.36h7.5c2.31,0,4.07.65,5.19,1.74.83.86,1.32,2.02,1.32,3.37v.05c0,3.06-2.36,4.85-5.71,5.14l6.04,7.86h-1.12l-5.91-7.76h-6.43v7.76h-.88v-18.16ZM69.39,150.96c3.74,0,5.86-1.82,5.86-4.38v-.05c0-2.72-2.1-4.36-5.68-4.36h-6.56v8.79h6.38Z"/>
      <polygon class="cls-2" points="82.51 141.36 95.3 141.36 95.3 142.16 83.39 142.16 83.39 149.97 94.16 149.97 94.16 150.77 83.39 150.77 83.39 158.71 95.43 158.71 95.43 159.52 82.51 159.52 82.51 141.36"/>
      <polygon class="cls-2" points="101.37 141.36 102.25 141.36 102.25 153.5 114.42 141.36 115.64 141.36 107.73 149.17 115.95 159.52 114.81 159.52 107.1 149.76 102.25 154.56 102.25 159.52 101.37 159.52 101.37 141.36"/>
      <polygon class="cls-2" points="121.37 141.36 122.25 141.36 122.25 158.71 133.2 158.71 133.2 159.52 121.37 159.52 121.37 141.36"/>
      <path class="cls-2" d="M138.41,137.8h1.4v1.58h-1.4v-1.58ZM138.67,141.36h.88v18.16h-.88v-18.16Z"/>
      <polygon class="cls-2" points="155.82 141.36 168.61 141.36 168.61 142.16 156.7 142.16 156.7 149.97 167.47 149.97 167.47 150.77 156.7 150.77 156.7 158.71 168.74 158.71 168.74 159.52 155.82 159.52 155.82 141.36"/>
      <path class="cls-2" d="M173.48,150.49v-.05c0-4.88,3.5-9.39,8.98-9.39,2.85,0,4.62.86,6.43,2.36l-.57.67c-1.58-1.32-3.24-2.23-5.92-2.23-4.82,0-8.02,4.1-8.02,8.56v.05c0,4.7,3.04,8.59,8.15,8.59,2.54,0,4.75-1.12,6.2-2.33v-5.58h-6.46v-.86h7.32v6.77c-1.69,1.53-4.15,2.78-7.08,2.78-5.71,0-9.03-4.25-9.03-9.34M178.88,137.18h.73c.26.86,1.06,1.53,2.62,1.53s2.33-.65,2.62-1.53h.73c-.21,1.38-1.4,2.34-3.35,2.34s-3.14-.96-3.35-2.34"/>
      <path class="cls-2" d="M196.08,137.8h1.4v1.58h-1.4v-1.58ZM196.34,141.36h.88v18.16h-.88v-18.16Z"/>
      <polygon class="cls-2" points="209.15 142.16 202.69 142.16 202.69 141.36 216.52 141.36 216.52 142.16 210.04 142.16 210.04 159.52 209.15 159.52 209.15 142.16"/>
      <path class="cls-2" d="M221.71,137.8h1.4v1.58h-1.4v-1.58ZM221.97,141.36h.88v18.16h-.88v-18.16Z"/>
      <polygon class="cls-2" points="230.03 141.36 230.86 141.36 238.54 152.41 246.2 141.36 247.03 141.36 247.03 159.52 246.14 159.52 246.14 142.89 238.54 153.78 238.49 153.78 230.89 142.89 230.89 159.52 230.03 159.52 230.03 141.36"/>
      <polygon class="cls-2" points="263.11 141.36 263.94 141.36 271.62 152.41 279.27 141.36 280.1 141.36 280.1 159.52 279.22 159.52 279.22 142.89 271.62 153.78 271.57 153.78 263.96 142.89 263.96 159.52 263.11 159.52 263.11 141.36"/>
      <polygon class="cls-2" points="287.1 141.36 299.89 141.36 299.89 142.16 287.99 142.16 287.99 149.97 298.75 149.97 298.75 150.77 287.99 150.77 287.99 158.71 300.02 158.71 300.02 159.52 287.1 159.52 287.1 141.36"/>
      <path class="cls-2" d="M305.96,141.36h7.5c2.31,0,4.07.65,5.19,1.74.83.86,1.32,2.02,1.32,3.37v.05c0,3.06-2.36,4.85-5.71,5.14l6.05,7.86h-1.11l-5.92-7.76h-6.43v7.76h-.88v-18.16ZM313.22,150.96c3.74,0,5.86-1.82,5.86-4.38v-.05c0-2.72-2.1-4.36-5.68-4.36h-6.56v8.79h6.38Z"/>
      <polygon class="cls-2" points="326.35 141.36 327.23 141.36 327.23 153.5 339.4 141.36 340.62 141.36 332.71 149.17 340.93 159.52 339.79 159.52 332.08 149.76 327.23 154.56 327.23 159.52 326.35 159.52 326.35 141.36"/>
      <polygon class="cls-2" points="346.35 141.36 359.14 141.36 359.14 142.16 347.23 142.16 347.23 149.97 358 149.97 358 150.77 347.23 150.77 347.23 158.71 359.27 158.71 359.27 159.52 346.35 159.52 346.35 141.36"/>
      <polygon class="cls-2" points="364.25 159.02 377.12 142.16 364.69 142.16 364.69 141.36 378.36 141.36 378.36 141.85 365.49 158.71 378.31 158.71 378.31 159.52 364.25 159.52 364.25 159.02"/>
      <path class="cls-2" d="M384.43,137.8h1.4v1.58h-1.4v-1.58ZM384.69,141.36h.88v18.16h-.88v-18.16Z"/>
      <path class="cls-2" d="M41.17,46.46h5.96l16.1,36.84h-6.79l-3.71-8.83h-17.3l-3.76,8.83h-6.59l16.1-36.84ZM50.37,68.77l-6.32-14.63-6.27,14.63h12.6Z"/>
      <polygon class="cls-2" points="66.88 46.72 72.84 46.72 92.44 72.01 92.44 46.72 98.76 46.72 98.76 83.3 93.38 83.3 73.2 57.28 73.2 83.3 66.88 83.3 66.88 46.72"/>
      <polygon class="cls-2" points="114.54 52.68 102.94 52.68 102.94 46.72 132.62 46.72 132.62 52.68 121.02 52.68 121.02 83.3 114.54 83.3 114.54 52.68"/>
      <path class="cls-2" d="M145.06,46.46h5.96l16.09,36.84h-6.79l-3.71-8.83h-17.3l-3.76,8.83h-6.58l16.1-36.84ZM154.26,68.77l-6.32-14.63-6.27,14.63h12.6Z"/>
      <polygon class="cls-2" points="170.78 46.72 177.2 46.72 177.2 77.45 196.43 77.45 196.43 83.3 170.78 83.3 170.78 46.72"/>
      <polygon class="cls-2" points="204.48 68.88 189.95 46.72 197.59 46.72 207.78 62.87 218.12 46.72 225.49 46.72 210.96 68.72 210.96 83.3 204.48 83.3 204.48 68.88"/>
      <path class="cls-2" d="M235.74,46.46h5.96l16.1,36.84h-6.79l-3.71-8.83h-17.3l-3.76,8.83h-6.58l16.1-36.84ZM244.93,68.77l-6.32-14.63-6.27,14.63h12.59Z"/>
      <path class="cls-2" d="M271.48,77.81l6.53-7.79c3.97,3.03,8.52,4.28,12.8,4.28,2.19,0,3.13-.57,3.13-1.57v-.11c0-1.05-1.15-1.62-5.07-2.4-8.21-1.67-15.42-4.02-15.42-11.76v-.1c0-6.95,5.43-12.33,15.52-12.33,7.06,0,12.28,1.67,16.51,5.02l-5.96,8.26c-3.45-2.51-7.58-3.6-10.97-3.6-1.83,0-2.67.63-2.67,1.51v.11c0,.99.99,1.62,4.86,2.35,9.35,1.73,15.63,4.44,15.63,11.81v.1c0,7.68-6.32,12.39-16.15,12.39-7.42,0-14.11-2.09-18.76-6.17"/>
      <polygon class="cls-2" points="309.22 46.72 340.41 46.72 340.41 56.75 321.23 56.75 321.23 60.46 339.11 60.46 339.11 69.3 321.23 69.3 321.23 73.27 340.68 73.27 340.68 83.3 309.22 83.3 309.22 46.72"/>
      <polygon class="cls-2" points="343.97 46.72 356.72 46.72 364.56 59.57 372.4 46.72 385.15 46.72 385.15 83.3 372.97 83.3 372.97 65.17 364.56 78.18 364.35 78.18 355.94 65.17 355.94 83.3 343.97 83.3 343.97 46.72"/>
      <rect class="cls-2" x="26.58" y="95.93" width="360.37" height="2.42"/>
    </g>
  </g>
</svg>